<svg width="50" height="40" viewBox="0 0 64 50" fill="none" xmlns="http://www.w3.org/2000/svg">
<path d="M37.5649 17.6562V13.9062C39.1542 13.1771 40.7796 12.6302 42.4412 12.2656C44.1027 11.901 45.8485 11.7188 47.6786 11.7188C48.9307 11.7188 50.1588 11.8229 51.3628 12.0312C52.5668 12.2396 53.7468 12.5 54.9026 12.8125V16.25C53.7468 15.7812 52.5789 15.4297 51.3989 15.1953C50.219 14.9609 48.9789 14.8438 47.6786 14.8438C45.8485 14.8438 44.0906 15.0911 42.405 15.5859C40.7194 16.0807 39.1061 16.7708 37.5649 17.6562ZM37.5649 34.8438V31.0156C39.1542 30.2865 40.7796 29.7526 42.4412 29.4141C44.1027 29.0755 45.8485 28.9062 47.6786 28.9062C48.9307 28.9062 50.1588 29.0104 51.3628 29.2188C52.5668 29.4271 53.7468 29.6875 54.9026 30V33.4375C53.7468 32.9688 52.5789 32.6172 51.3989 32.3828C50.219 32.1484 48.9789 32.0312 47.6786 32.0312C45.8485 32.0312 44.0906 32.2656 42.405 32.7344C40.7194 33.2031 39.1061 33.9062 37.5649 34.8438ZM37.5649 26.25V22.5C39.1542 21.7708 40.7796 21.224 42.4412 20.8594C44.1027 20.4948 45.8485 20.3125 47.6786 20.3125C48.9307 20.3125 50.1588 20.4167 51.3628 20.625C52.5668 20.8333 53.7468 21.0938 54.9026 21.4063V24.8438C53.7468 24.375 52.5789 24.0234 51.3989 23.7891C50.219 23.5547 48.9789 23.4375 47.6786 23.4375C45.8485 23.4375 44.0906 23.6849 42.405 24.1797C40.7194 24.6745 39.1061 25.3646 37.5649 26.25ZM15.026 39.0625C17.6266 39.0625 20.143 39.388 22.5751 40.0391C25.0072 40.6901 27.4031 41.6667 29.763 42.9688V9.60937C27.5958 8.04687 25.248 6.83594 22.7196 5.97656C20.1912 5.11719 17.6266 4.6875 15.026 4.6875C13.1959 4.6875 11.4019 4.9349 9.64408 5.42969C7.88623 5.92448 6.11634 6.53646 4.33442 7.26562V41.1719C5.82738 40.4427 7.52503 39.9089 9.42735 39.5703C11.3297 39.2318 13.1959 39.0625 15.026 39.0625ZM34.0974 42.9688C36.5054 41.6667 38.8653 40.6901 41.1769 40.0391C43.4886 39.388 45.9448 39.0625 48.5455 39.0625C50.3755 39.0625 52.2658 39.2188 54.2163 39.5312C56.1668 39.8438 57.8404 40.2604 59.237 40.7812V7.26562C57.5996 6.38021 55.8658 5.72917 54.0357 5.3125C52.2056 4.89583 50.3755 4.6875 48.5455 4.6875C45.9448 4.6875 43.4284 5.11719 40.9963 5.97656C38.5643 6.83594 36.2646 8.04687 34.0974 9.60937V42.9688ZM31.9302 50C29.474 48.0208 26.8011 46.4974 23.9115 45.4297C21.0219 44.362 18.0601 43.8281 15.026 43.8281C13.244 43.8281 11.5103 44.0625 9.82468 44.5312C8.13907 45 6.45346 45.5729 4.76786 46.25C3.66017 46.8229 2.58861 46.7448 1.55317 46.0156C0.517722 45.2865 0 44.2448 0 42.8906V6.71875C0 5.9375 0.16856 5.22135 0.505682 4.57031C0.842803 3.91927 1.34848 3.41146 2.02273 3.04687C4.04545 2.00521 6.15246 1.23698 8.34375 0.742188C10.535 0.247396 12.7624 0 15.026 0C18.0601 0 21.0099 0.442709 23.8754 1.32813C26.7409 2.21354 29.4259 3.56771 31.9302 5.39062C34.3864 3.56771 37.0231 2.21354 39.8405 1.32813C42.6579 0.442709 45.5595 0 48.5455 0C50.809 0 53.0244 0.247396 55.1916 0.742188C57.3588 1.23698 59.4537 2.00521 61.4765 3.04687C62.1507 3.41146 62.6684 3.91927 63.0296 4.57031C63.3908 5.22135 63.5714 5.9375 63.5714 6.71875V42.8906C63.5714 44.349 63.0296 45.4557 61.946 46.2109C60.8624 46.9661 59.7909 46.9792 58.7313 46.25C57.0939 45.5208 55.4324 44.9349 53.7468 44.4922C52.0611 44.0495 50.3274 43.8281 48.5455 43.8281C45.5114 43.8281 42.5977 44.375 39.8044 45.4687C37.0111 46.5625 34.3864 48.0729 31.9302 50Z" fill="black"/>
</svg>
